<?xml version="1.0" standalone="no"?>
<!DOCTYPE svg PUBLIC "-//W3C//DTD SVG 20010904//EN"
 "http://www.w3.org/TR/2001/REC-SVG-20010904/DTD/svg10.dtd">
<svg version="1.0" xmlns="http://www.w3.org/2000/svg"
 width="500.000000pt" height="500.000000pt" viewBox="0 0 500.000000 500.000000"
 preserveAspectRatio="xMidYMid meet">

<g transform="translate(0.000000,500.000000) scale(0.100000,-0.100000)"
fill="#000000" stroke="none">
<path d="M522 3937 l-22 -23 0 -1291 c0 -1256 1 -1291 19 -1314 l19 -24 1962
0 1962 0 19 24 c18 23 19 58 19 1315 l0 1293 -23 21 -23 22 -1955 0 -1956 0
-21 -23z m3628 -1317 l0 -990 -1650 0 -1650 0 0 990 0 990 1650 0 1650 0 0
-990z" fill="white"/>
<path d="M1280 2690 l0 -640 145 0 145 0 0 385 c0 212 3 385 8 384 4 0 148
-173 321 -385 l315 -384 123 0 123 0 0 640 0 640 -150 0 -150 0 0 -386 0 -386
-316 386 -315 386 -125 0 -124 0 0 -640z" fill="white"/>
<path d="M3070 2909 c-77 -8 -124 -26 -175 -65 l-45 -34 0 45 0 45 -115 0
-115 0 0 -410 0 -410 120 0 120 0 0 223 c0 248 9 303 57 349 89 85 237 71 287
-27 19 -37 21 -61 24 -292 l4 -253 114 0 114 0 0 277 c0 314 -7 357 -69 439
-65 86 -184 128 -321 113z" fill="white"/>
<path d="M3710 2353 c-55 -20 -97 -99 -85 -161 14 -75 70 -122 145 -122 140 0
200 166 95 259 -31 27 -43 31 -88 30 -29 0 -59 -3 -67 -6z" fill="white"/>
</g>
</svg>

