<?xml version="1.0" standalone="no"?>
<!DOCTYPE svg PUBLIC "-//W3C//DTD SVG 20010904//EN"
 "http://www.w3.org/TR/2001/REC-SVG-20010904/DTD/svg10.dtd">
<svg version="1.0" xmlns="http://www.w3.org/2000/svg"
 width="500.000000pt" height="500.000000pt" viewBox="0 0 500.000000 500.000000"
 preserveAspectRatio="xMidYMid meet">

<g transform="translate(0.000000,500.000000) scale(0.100000,-0.100000)"
fill="#000000" stroke="none">
<path d="M1889 3099 c-14 -5 -31 -21 -38 -35 -16 -36 -16 -1093 1 -1129 7 -16
24 -29 47 -36 24 -7 313 -9 874 -7 l839 3 19 24 c18 22 19 47 19 581 0 534 -1
559 -19 581 l-19 24 -849 2 c-526 1 -858 -2 -874 -8z m1709 -41 c17 -17 17
-1099 0 -1116 -16 -16 -1669 -17 -1699 -2 -18 10 -19 27 -19 560 0 512 1 550
18 559 26 16 1684 15 1700 -1z"/>
<path d="M2150 2495 l0 -365 80 0 80 0 2 220 3 219 180 -219 180 -220 68 0 67
0 0 365 0 365 -80 0 -80 0 -2 -221 -3 -220 -180 220 -180 221 -67 0 -68 0 0
-365z"/>
<path d="M2957 2411 c-29 -15 -37 -16 -37 -5 0 10 -12 14 -40 14 l-40 0 0
-145 0 -145 39 0 39 0 4 96 c3 105 14 124 69 124 49 0 59 -21 59 -126 l0 -94
46 0 47 0 -5 109 c-5 123 -18 153 -73 177 -45 19 -63 18 -108 -5z"/>
<path d="M3206 2214 c-9 -8 -16 -22 -16 -30 0 -55 66 -75 96 -29 15 23 15 27
0 50 -19 29 -56 33 -80 9z"/>
</g>
</svg>
